<mxfile host="app.diagrams.net" modified="2023-01-18T14:54:41.627Z" agent="5.0 (Windows NT 10.0; Win64; x64) AppleWebKit/537.36 (KHTML, like Gecko) Chrome/108.0.0.0 Safari/537.36" etag="2hlIgwMz7urzPpRZJRE4" version="20.8.5" type="github">
  <diagram name="Page-1" id="2a216829-ef6e-dabb-86c1-c78162f3ba2b">
    <mxGraphModel dx="1434" dy="764" grid="1" gridSize="10" guides="1" tooltips="1" connect="1" arrows="1" fold="1" page="1" pageScale="1" pageWidth="1169" pageHeight="827" background="none" math="0" shadow="0">
      <root>
        <mxCell id="0" />
        <mxCell id="1" parent="0" />
        <mxCell id="RHh-wQcXce-xCdEOCxNd-33" value="" style="whiteSpace=wrap;html=1;aspect=fixed;fontSize=10;fillColor=#f0a30a;fontColor=#000000;strokeColor=#BD7000;gradientColor=none;" vertex="1" parent="1">
          <mxGeometry x="350" y="510" width="190" height="190" as="geometry" />
        </mxCell>
        <mxCell id="7a84cebc1def654-1" value="" style="shape=mxgraph.bpmn.shape;html=1;verticalLabelPosition=bottom;labelBackgroundColor=#ffffff;verticalAlign=top;perimeter=ellipsePerimeter;outline=standard;symbol=general;" parent="1" vertex="1">
          <mxGeometry x="50" y="270" width="50" height="50" as="geometry" />
        </mxCell>
        <mxCell id="7a84cebc1def654-2" value="external identifier&amp;nbsp;&amp;gt;0&lt;br&gt;&lt;div style=&quot;text-align: left;&quot;&gt;&lt;span style=&quot;background-color: initial;&quot;&gt;and co frake not in (34, 35)&lt;/span&gt;&lt;/div&gt;&lt;div style=&quot;text-align: left;&quot;&gt;&lt;span style=&quot;background-color: initial;&quot;&gt;and&amp;nbsp;&lt;/span&gt;co frake in (00, 01)&lt;/div&gt;" style="shape=ext;rounded=1;html=1;whiteSpace=wrap;" parent="1" vertex="1">
          <mxGeometry x="140" y="255" width="170" height="80" as="geometry" />
        </mxCell>
        <mxCell id="RHh-wQcXce-xCdEOCxNd-11" value="" style="edgeStyle=orthogonalEdgeStyle;rounded=0;orthogonalLoop=1;jettySize=auto;html=1;" edge="1" parent="1" source="7a84cebc1def654-8" target="RHh-wQcXce-xCdEOCxNd-10">
          <mxGeometry relative="1" as="geometry" />
        </mxCell>
        <mxCell id="7a84cebc1def654-8" value="pensioner is deceased&lt;br&gt;(co frake = 10)" style="shape=ext;rounded=1;html=1;whiteSpace=wrap;" parent="1" vertex="1">
          <mxGeometry x="480" y="335" width="120" height="80" as="geometry" />
        </mxCell>
        <mxCell id="7a84cebc1def654-26" value="" style="shape=mxgraph.bpmn.shape;html=1;verticalLabelPosition=bottom;labelBackgroundColor=#ffffff;verticalAlign=top;perimeter=ellipsePerimeter;outline=end;symbol=general;" parent="1" vertex="1">
          <mxGeometry x="740" y="940" width="50" height="50" as="geometry" />
        </mxCell>
        <mxCell id="7a84cebc1def654-36" style="edgeStyle=orthogonalEdgeStyle;rounded=0;html=1;jettySize=auto;orthogonalLoop=1;" parent="1" source="7a84cebc1def654-1" target="7a84cebc1def654-2" edge="1">
          <mxGeometry relative="1" as="geometry" />
        </mxCell>
        <mxCell id="7a84cebc1def654-39" style="edgeStyle=orthogonalEdgeStyle;rounded=0;html=1;jettySize=auto;orthogonalLoop=1;startArrow=none;exitX=0.5;exitY=0;exitDx=0;exitDy=0;entryX=0;entryY=0.5;entryDx=0;entryDy=0;" parent="1" source="RHh-wQcXce-xCdEOCxNd-3" target="RHh-wQcXce-xCdEOCxNd-7" edge="1">
          <mxGeometry relative="1" as="geometry">
            <mxPoint x="530.96" y="162" as="targetPoint" />
          </mxGeometry>
        </mxCell>
        <mxCell id="RHh-wQcXce-xCdEOCxNd-5" value="YES" style="edgeLabel;html=1;align=center;verticalAlign=middle;resizable=0;points=[];" vertex="1" connectable="0" parent="7a84cebc1def654-39">
          <mxGeometry x="0.2245" relative="1" as="geometry">
            <mxPoint as="offset" />
          </mxGeometry>
        </mxCell>
        <mxCell id="7a84cebc1def654-48" style="edgeStyle=orthogonalEdgeStyle;rounded=0;html=1;jettySize=auto;orthogonalLoop=1;exitX=0.5;exitY=1;exitDx=0;exitDy=0;entryX=0;entryY=0.5;entryDx=0;entryDy=0;" parent="1" source="RHh-wQcXce-xCdEOCxNd-3" target="7a84cebc1def654-8" edge="1">
          <mxGeometry relative="1" as="geometry">
            <mxPoint x="590" y="305" as="sourcePoint" />
          </mxGeometry>
        </mxCell>
        <mxCell id="RHh-wQcXce-xCdEOCxNd-6" value="NO" style="edgeLabel;html=1;align=center;verticalAlign=middle;resizable=0;points=[];" vertex="1" connectable="0" parent="7a84cebc1def654-48">
          <mxGeometry x="-0.4341" y="-1" relative="1" as="geometry">
            <mxPoint as="offset" />
          </mxGeometry>
        </mxCell>
        <mxCell id="RHh-wQcXce-xCdEOCxNd-2" value="BEX Foreign response process" style="text;strokeColor=none;fillColor=none;html=1;fontSize=24;fontStyle=1;verticalAlign=middle;align=center;" vertex="1" parent="1">
          <mxGeometry x="160" y="80" width="100" height="40" as="geometry" />
        </mxCell>
        <mxCell id="RHh-wQcXce-xCdEOCxNd-4" value="" style="edgeStyle=orthogonalEdgeStyle;rounded=0;html=1;jettySize=auto;orthogonalLoop=1;endArrow=none;" edge="1" parent="1" source="7a84cebc1def654-2" target="RHh-wQcXce-xCdEOCxNd-3">
          <mxGeometry relative="1" as="geometry">
            <mxPoint x="310" y="295" as="sourcePoint" />
            <mxPoint x="590" y="210" as="targetPoint" />
          </mxGeometry>
        </mxCell>
        <mxCell id="RHh-wQcXce-xCdEOCxNd-3" value="" style="rhombus;whiteSpace=wrap;html=1;" vertex="1" parent="1">
          <mxGeometry x="375" y="272.5" width="50" height="45" as="geometry" />
        </mxCell>
        <mxCell id="RHh-wQcXce-xCdEOCxNd-7" value="Handle external ID" style="shape=process;whiteSpace=wrap;html=1;backgroundOutline=1;" vertex="1" parent="1">
          <mxGeometry x="480" y="180" width="120" height="60" as="geometry" />
        </mxCell>
        <mxCell id="RHh-wQcXce-xCdEOCxNd-13" value="" style="edgeStyle=orthogonalEdgeStyle;rounded=0;orthogonalLoop=1;jettySize=auto;html=1;" edge="1" parent="1" source="RHh-wQcXce-xCdEOCxNd-10" target="RHh-wQcXce-xCdEOCxNd-12">
          <mxGeometry relative="1" as="geometry" />
        </mxCell>
        <mxCell id="RHh-wQcXce-xCdEOCxNd-14" value="YES" style="edgeLabel;html=1;align=center;verticalAlign=middle;resizable=0;points=[];" vertex="1" connectable="0" parent="RHh-wQcXce-xCdEOCxNd-13">
          <mxGeometry x="0.28" y="2" relative="1" as="geometry">
            <mxPoint as="offset" />
          </mxGeometry>
        </mxCell>
        <mxCell id="RHh-wQcXce-xCdEOCxNd-16" value="" style="edgeStyle=orthogonalEdgeStyle;rounded=0;orthogonalLoop=1;jettySize=auto;html=1;" edge="1" parent="1" source="RHh-wQcXce-xCdEOCxNd-10" target="RHh-wQcXce-xCdEOCxNd-15">
          <mxGeometry relative="1" as="geometry" />
        </mxCell>
        <mxCell id="RHh-wQcXce-xCdEOCxNd-10" value="" style="rhombus;whiteSpace=wrap;html=1;rounded=1;" vertex="1" parent="1">
          <mxGeometry x="650" y="352.5" width="50" height="45" as="geometry" />
        </mxCell>
        <mxCell id="RHh-wQcXce-xCdEOCxNd-12" value="Handle decease" style="shape=process;whiteSpace=wrap;html=1;backgroundOutline=1;" vertex="1" parent="1">
          <mxGeometry x="795" y="345" width="120" height="60" as="geometry" />
        </mxCell>
        <mxCell id="RHh-wQcXce-xCdEOCxNd-22" value="" style="edgeStyle=orthogonalEdgeStyle;rounded=0;orthogonalLoop=1;jettySize=auto;html=1;" edge="1" parent="1" source="RHh-wQcXce-xCdEOCxNd-15" target="RHh-wQcXce-xCdEOCxNd-21">
          <mxGeometry relative="1" as="geometry" />
        </mxCell>
        <mxCell id="RHh-wQcXce-xCdEOCxNd-15" value="pensioner is in live&lt;br&gt;(co frake in&amp;nbsp;&quot;00&quot;&lt;span style=&quot;background-color: rgb(255, 255, 255); color: rgb(0, 0, 0); text-align: start;&quot;&gt;, &lt;/span&gt;&lt;span style=&quot;background-color: rgb(255, 255, 255); text-align: start; color: green;&quot; class=&quot;s&quot;&gt;&quot;33&quot;&lt;/span&gt;&lt;span style=&quot;background-color: rgb(255, 255, 255); color: rgb(0, 0, 0); text-align: start;&quot;&gt;, &lt;/span&gt;&lt;span style=&quot;background-color: rgb(255, 255, 255); text-align: start; color: green;&quot; class=&quot;s&quot;&gt;&quot;34&quot;&lt;/span&gt;&lt;span style=&quot;background-color: rgb(255, 255, 255); color: rgb(0, 0, 0); text-align: start;&quot;&gt;, &lt;/span&gt;&lt;span style=&quot;background-color: rgb(255, 255, 255); text-align: start; color: green;&quot; class=&quot;s&quot;&gt;&quot;35&quot;&lt;/span&gt;&lt;span style=&quot;background-color: initial;&quot;&gt;)&lt;/span&gt;" style="shape=ext;rounded=1;html=1;whiteSpace=wrap;" vertex="1" parent="1">
          <mxGeometry x="615" y="470" width="120" height="80" as="geometry" />
        </mxCell>
        <mxCell id="RHh-wQcXce-xCdEOCxNd-28" value="" style="edgeStyle=orthogonalEdgeStyle;rounded=0;orthogonalLoop=1;jettySize=auto;html=1;entryX=0.5;entryY=0;entryDx=0;entryDy=0;" edge="1" parent="1" source="RHh-wQcXce-xCdEOCxNd-18" target="RHh-wQcXce-xCdEOCxNd-25">
          <mxGeometry relative="1" as="geometry" />
        </mxCell>
        <mxCell id="RHh-wQcXce-xCdEOCxNd-18" value="createLifeCertificate" style="shape=process;whiteSpace=wrap;html=1;backgroundOutline=1;" vertex="1" parent="1">
          <mxGeometry x="370" y="595" width="140" height="60" as="geometry" />
        </mxCell>
        <mxCell id="RHh-wQcXce-xCdEOCxNd-23" value="" style="edgeStyle=orthogonalEdgeStyle;rounded=0;orthogonalLoop=1;jettySize=auto;html=1;fontStyle=1" edge="1" parent="1" source="RHh-wQcXce-xCdEOCxNd-21" target="RHh-wQcXce-xCdEOCxNd-18">
          <mxGeometry relative="1" as="geometry" />
        </mxCell>
        <mxCell id="RHh-wQcXce-xCdEOCxNd-24" value="YES" style="edgeLabel;html=1;align=center;verticalAlign=middle;resizable=0;points=[];" vertex="1" connectable="0" parent="RHh-wQcXce-xCdEOCxNd-23">
          <mxGeometry x="-0.7465" y="-2" relative="1" as="geometry">
            <mxPoint as="offset" />
          </mxGeometry>
        </mxCell>
        <mxCell id="RHh-wQcXce-xCdEOCxNd-21" value="" style="rhombus;whiteSpace=wrap;html=1;rounded=1;" vertex="1" parent="1">
          <mxGeometry x="647.5" y="600" width="55" height="50" as="geometry" />
        </mxCell>
        <mxCell id="RHh-wQcXce-xCdEOCxNd-29" value="YES" style="edgeStyle=orthogonalEdgeStyle;rounded=0;orthogonalLoop=1;jettySize=auto;html=1;" edge="1" parent="1" source="RHh-wQcXce-xCdEOCxNd-25" target="RHh-wQcXce-xCdEOCxNd-26">
          <mxGeometry relative="1" as="geometry" />
        </mxCell>
        <mxCell id="RHh-wQcXce-xCdEOCxNd-25" value="pensioner has changerd address&lt;br&gt;co&amp;nbsp; frake in &lt;span style=&quot;background-color: rgb(255, 255, 255); color: rgb(0, 0, 0); text-align: start;&quot;&gt;&amp;nbsp;&lt;/span&gt;&lt;span style=&quot;background-color: rgb(255, 255, 255); text-align: start; color: green;&quot; class=&quot;s&quot;&gt;&quot;33&quot;&lt;/span&gt;&lt;span style=&quot;background-color: rgb(255, 255, 255); color: rgb(0, 0, 0); text-align: start;&quot;&gt;, &lt;/span&gt;&lt;span style=&quot;background-color: rgb(255, 255, 255); text-align: start; color: green;&quot; class=&quot;s&quot;&gt;&quot;34&quot;&lt;/span&gt;&lt;span style=&quot;background-color: rgb(255, 255, 255); color: rgb(0, 0, 0); text-align: start;&quot;&gt;, &lt;/span&gt;&lt;span style=&quot;background-color: rgb(255, 255, 255); text-align: start; color: green;&quot; class=&quot;s&quot;&gt;&quot;35&quot;&lt;/span&gt;&lt;span style=&quot;background-color: initial;&quot;&gt;)&lt;/span&gt;" style="shape=ext;rounded=1;html=1;whiteSpace=wrap;" vertex="1" parent="1">
          <mxGeometry x="380" y="720" width="120" height="80" as="geometry" />
        </mxCell>
        <mxCell id="RHh-wQcXce-xCdEOCxNd-31" value="" style="edgeStyle=orthogonalEdgeStyle;rounded=0;orthogonalLoop=1;jettySize=auto;html=1;" edge="1" parent="1" source="RHh-wQcXce-xCdEOCxNd-26" target="RHh-wQcXce-xCdEOCxNd-30">
          <mxGeometry relative="1" as="geometry" />
        </mxCell>
        <mxCell id="RHh-wQcXce-xCdEOCxNd-26" value="" style="rhombus;whiteSpace=wrap;html=1;rounded=1;" vertex="1" parent="1">
          <mxGeometry x="412.5" y="840" width="55" height="50" as="geometry" />
        </mxCell>
        <mxCell id="RHh-wQcXce-xCdEOCxNd-30" value="handleAddress" style="shape=process;whiteSpace=wrap;html=1;backgroundOutline=1;" vertex="1" parent="1">
          <mxGeometry x="370" y="925" width="140" height="60" as="geometry" />
        </mxCell>
        <mxCell id="RHh-wQcXce-xCdEOCxNd-32" value="https://opengrok.onprvp.fgov.be/xref/theseos-develop/plugins/BilateralExchange/bilateralExchangeV2-model/src/main/java/be/rvponp/bilateralexchange/v2/model/jobs/ForeignResponseHandleAndList.java#createLifeCertificate" style="text;strokeColor=none;fillColor=none;html=1;fontSize=10;fontStyle=1;verticalAlign=middle;align=center;" vertex="1" parent="1">
          <mxGeometry x="515" y="120" width="100" height="40" as="geometry" />
        </mxCell>
      </root>
    </mxGraphModel>
  </diagram>
</mxfile>
